<svg xmlns="http://www.w3.org/2000/svg" xmlns:xlink="http://www.w3.org/1999/xlink" width="500" zoomAndPan="magnify" viewBox="0 0 375 374.999991" height="500" preserveAspectRatio="xMidYMid meet" version="1.0"><defs><clipPath id="ed0e7e6ea7"><path d="M 187.503906 161.53125 L 256 161.53125 L 256 257 L 187.503906 257 Z M 187.503906 161.53125 " clip-rule="nonzero"/></clipPath><clipPath id="4a6f7b2af7"><path d="M 123 200 L 151 200 L 151 269.496094 L 123 269.496094 Z M 123 200 " clip-rule="nonzero"/></clipPath><clipPath id="b999ffdc52"><path d="M 78.433594 191 L 138 191 L 138 255 L 78.433594 255 Z M 78.433594 191 " clip-rule="nonzero"/></clipPath><clipPath id="e9c1d8554f"><path d="M 135 105.246094 L 242.683594 105.246094 L 242.683594 198 L 135 198 Z M 135 105.246094 " clip-rule="nonzero"/></clipPath><clipPath id="7c52cc5486"><path d="M 170 94 L 200.597656 94 L 200.597656 119 L 170 119 Z M 170 94 " clip-rule="nonzero"/></clipPath><clipPath id="a0e887f731"><path d="M 155 78.519531 L 184 78.519531 L 184 125 L 155 125 Z M 155 78.519531 " clip-rule="nonzero"/></clipPath><clipPath id="a0f13d85b2"><path d="M 144 122 L 174 122 L 174 181.269531 L 144 181.269531 Z M 144 122 " clip-rule="nonzero"/></clipPath></defs><g clip-path="url(#ed0e7e6ea7)"><path fill="#000000" d="M 187.546875 243.734375 C 187.503906 248.964844 189.804688 254.335938 194.097656 255.910156 C 199.273438 258.246094 205.324219 254.496094 207.191406 248.089844 C 207.195312 248.070312 207.183594 248.042969 207.191406 248.023438 C 209.714844 241.039062 210.949219 232.347656 218.785156 224.78125 L 221.726562 221.945312 L 224.335938 224.503906 C 232.160156 232.09375 233.363281 240.753906 235.875 247.746094 C 235.882812 247.761719 235.867188 247.796875 235.875 247.816406 C 237.722656 254.199219 243.742188 257.90625 248.914062 255.632812 C 248.929688 255.625 248.953125 255.640625 248.96875 255.632812 C 254.203125 253.6875 256.519531 246.058594 255.128906 239.929688 C 255.125 239.910156 255.132812 239.878906 255.128906 239.859375 C 254.03125 233.582031 248.921875 228.441406 243.753906 229.898438 C 241.203125 230.617188 240.019531 231.539062 239.316406 232.390625 C 238.960938 232.816406 238.742188 233.1875 238.539062 233.425781 C 238.335938 233.667969 237.769531 234.675781 237.769531 234.675781 C 237.3125 234.050781 237.097656 233.6875 236.761719 233.148438 C 236.242188 232.347656 235.597656 230.949219 234.820312 229.136719 C 233.28125 225.550781 231.109375 220.269531 227.609375 214.195312 C 233.855469 203.214844 241.945312 188.949219 246.417969 181.0625 C 250.890625 173.175781 248.632812 165.105469 246.582031 161.761719 L 221.742188 204.054688 L 196.65625 161.519531 C 192.585938 168.113281 194.308594 175.636719 196.757812 180.648438 C 203.082031 191.789062 209.375 202.964844 215.679688 214.128906 C 212.894531 219.21875 210.339844 224.679688 208.300781 229.414062 C 207.519531 231.226562 206.882812 232.625 206.359375 233.429688 C 206.09375 233.828125 205.527344 234.847656 205.527344 234.847656 C 204.984375 233.917969 203.984375 232.933594 203.222656 232.21875 C 202.460938 231.503906 201.332031 230.660156 199.367188 230.175781 C 194.167969 228.898438 189.042969 233.863281 187.9375 240.136719 C 187.667969 241.351562 187.628906 242.660156 187.546875 243.734375 Z M 191.933594 244.425781 C 191.820312 242.089844 192.460938 239.679688 193.707031 238.128906 C 195.574219 235.808594 198.144531 235.367188 200.253906 236.261719 C 202.363281 237.160156 203.921875 239.308594 203.917969 242.351562 L 203.917969 242.417969 C 204.046875 245.207031 202.757812 247.925781 200.863281 249.542969 C 198.972656 251.164062 196.621094 251.625 194.59375 250.027344 L 194.539062 250.027344 C 192.859375 248.925781 192.042969 246.757812 191.929688 244.425781 Z M 239.148438 242.628906 C 239.144531 242.421875 239.140625 242.207031 239.148438 242.074219 C 239.148438 239.03125 240.703125 236.878906 242.8125 235.984375 C 244.917969 235.09375 247.496094 235.527344 249.359375 237.855469 C 250.601562 239.40625 251.300781 241.882812 251.191406 244.21875 C 251.078125 246.554688 250.207031 248.65625 248.527344 249.753906 L 248.472656 249.820312 C 246.507812 251.359375 244.285156 250.914062 242.421875 249.40625 C 240.558594 247.898438 239.1875 245.3125 239.148438 242.625 Z M 239.148438 242.628906 " fill-opacity="1" fill-rule="nonzero"/></g><path fill="#000000" d="M 164.144531 244.398438 L 160.386719 197.957031 L 160.046875 197.957031 C 159.703125 197.957031 159.363281 198.296875 159.019531 198.296875 L 159.703125 245.761719 C 159.703125 245.761719 159.703125 246.105469 159.703125 246.105469 L 166.875 264.542969 C 166.875 264.886719 167.214844 264.886719 167.214844 264.886719 C 167.898438 264.886719 170.289062 265.226562 171.3125 263.519531 C 171.65625 263.179688 171.65625 263.179688 171.3125 262.835938 Z M 164.144531 244.398438 " fill-opacity="1" fill-rule="nonzero"/><path fill="#000000" d="M 151.167969 247.128906 L 157.3125 198.980469 C 156.972656 198.980469 156.289062 199.320312 155.949219 199.320312 L 147.070312 248.152344 C 147.070312 248.496094 147.070312 248.496094 147.070312 248.835938 L 154.238281 266.59375 C 154.238281 266.59375 154.582031 266.933594 154.582031 266.933594 C 155.265625 267.277344 157.3125 267.277344 158.679688 265.570312 C 159.019531 265.226562 159.019531 265.226562 158.679688 264.886719 Z M 151.167969 247.128906 " fill-opacity="1" fill-rule="nonzero"/><path fill="#000000" d="M 138.53125 248.835938 L 153.558594 199.664062 C 153.214844 199.664062 152.875 199.664062 152.191406 200.003906 L 135.117188 250.203125 C 135.117188 250.542969 135.117188 250.886719 135.117188 250.886719 L 142.289062 268.300781 C 142.289062 268.640625 142.628906 268.640625 142.628906 268.640625 C 143.3125 268.640625 144.679688 268.984375 146.042969 267.277344 C 146.386719 266.933594 146.386719 266.933594 146.042969 266.59375 Z M 138.53125 248.835938 " fill-opacity="1" fill-rule="nonzero"/><g clip-path="url(#4a6f7b2af7)"><path fill="#000000" d="M 126.921875 249.175781 L 150.140625 200.003906 C 149.800781 200.003906 149.460938 200.003906 149.117188 200.003906 L 123.847656 250.542969 C 123.847656 250.886719 123.507812 251.226562 123.847656 251.226562 L 131.019531 268.640625 C 131.019531 268.984375 131.363281 268.984375 131.363281 268.984375 C 132.042969 269.324219 133.410156 269.324219 134.777344 267.617188 C 134.777344 267.617188 135.117188 267.277344 134.777344 266.933594 Z M 126.921875 249.175781 " fill-opacity="1" fill-rule="nonzero"/></g><path fill="#000000" d="M 117.019531 248.496094 L 147.070312 200.347656 L 146.042969 200.347656 L 113.605469 249.519531 C 113.261719 249.859375 113.261719 250.203125 113.605469 250.542969 L 120.433594 267.957031 C 120.433594 268.300781 120.777344 268.300781 120.777344 268.300781 C 121.457031 268.300781 122.484375 268.640625 124.191406 266.933594 C 124.191406 266.59375 124.53125 266.59375 124.191406 266.25 Z M 117.019531 248.496094 " fill-opacity="1" fill-rule="nonzero"/><path fill="#000000" d="M 107.117188 248.496094 L 144.335938 200.347656 C 143.996094 200.347656 143.65625 200.347656 143.3125 200.347656 L 104.042969 248.496094 C 103.703125 248.835938 103.703125 249.175781 104.042969 249.519531 L 110.53125 266.59375 C 110.53125 266.933594 110.871094 266.933594 111.214844 266.933594 C 111.898438 266.933594 112.921875 266.59375 113.605469 265.910156 C 113.605469 265.570312 113.945312 265.570312 113.605469 265.226562 Z M 107.117188 248.496094 " fill-opacity="1" fill-rule="nonzero"/><path fill="#000000" d="M 99.605469 246.105469 L 141.945312 200.003906 C 141.605469 200.003906 141.265625 200.003906 140.921875 199.664062 L 97.214844 245.421875 C 96.871094 245.761719 96.871094 246.105469 96.871094 246.445312 L 103.359375 262.835938 C 103.359375 263.179688 103.703125 263.179688 103.703125 263.179688 C 104.042969 263.179688 105.066406 263.179688 105.410156 262.496094 C 106.09375 262.496094 106.09375 262.152344 105.75 261.8125 Z M 99.605469 246.105469 " fill-opacity="1" fill-rule="nonzero"/><path fill="#000000" d="M 93.117188 242.691406 L 139.558594 199.664062 C 139.214844 199.664062 138.875 199.664062 138.875 199.320312 L 91.410156 242.007812 C 91.066406 242.347656 91.066406 242.691406 91.066406 243.03125 L 97.554688 258.398438 C 97.554688 258.738281 97.898438 258.738281 97.898438 258.738281 C 98.238281 258.738281 99.261719 258.738281 99.945312 258.054688 C 100.285156 257.714844 100.285156 257.714844 99.945312 257.371094 Z M 93.117188 242.691406 " fill-opacity="1" fill-rule="nonzero"/><g clip-path="url(#b999ffdc52)"><path fill="#000000" d="M 87.3125 237.910156 L 137.847656 198.980469 C 137.847656 198.980469 137.507812 198.980469 137.167969 198.640625 L 85.945312 237.226562 L 85.945312 236.882812 C 86.285156 236.882812 86.628906 236.542969 86.96875 236.203125 L 85.605469 232.785156 L 136.824219 198.296875 C 136.824219 198.296875 136.484375 197.957031 136.484375 197.957031 L 87.3125 230.054688 L 86.285156 227.324219 C 86.628906 227.324219 122.824219 205.128906 135.460938 197.273438 C 135.460938 197.273438 135.117188 196.933594 135.117188 196.933594 L 87.992188 225.273438 L 86.628906 221.859375 L 134.433594 196.25 C 134.433594 196.25 134.09375 195.90625 134.09375 195.90625 L 86.285156 221.175781 L 85.261719 218.445312 L 133.410156 194.882812 C 133.410156 194.882812 133.410156 194.542969 133.070312 194.542969 L 84.921875 217.421875 L 84.238281 215.371094 L 133.070312 193.515625 C 133.070312 193.175781 133.070312 193.175781 132.726562 192.835938 L 83.214844 213.664062 L 82.53125 211.613281 L 132.386719 191.808594 L 132.386719 191.125 L 81.164062 210.25 C 80.480469 210.589844 80.480469 210.933594 80.480469 211.613281 L 81.503906 214.347656 L 80.480469 214.6875 C 80.140625 215.03125 79.796875 215.371094 79.796875 216.054688 L 80.824219 219.128906 L 79.117188 219.8125 C 78.773438 220.152344 78.433594 220.492188 78.773438 221.175781 L 79.796875 224.25 L 79.457031 224.589844 C 79.117188 224.933594 78.773438 225.273438 79.117188 225.957031 L 80.480469 230.054688 C 80.480469 230.394531 80.140625 230.738281 80.480469 230.738281 L 86.285156 246.445312 C 86.285156 246.789062 86.628906 246.789062 86.628906 246.789062 C 86.628906 246.789062 86.96875 246.789062 87.3125 246.789062 L 88.335938 249.859375 C 88.335938 250.203125 88.675781 250.203125 88.675781 250.203125 C 89.019531 250.203125 89.359375 250.203125 89.703125 250.203125 L 91.410156 254.640625 C 91.410156 254.640625 92.089844 255.324219 93.117188 254.300781 C 93.457031 254.300781 93.457031 253.957031 93.117188 253.617188 Z M 84.921875 222.882812 L 86.285156 226.296875 Z M 83.554688 219.128906 L 84.578125 221.859375 L 84.238281 221.859375 Z M 82.1875 216.054688 L 83.214844 218.101562 L 82.871094 218.101562 Z M 80.480469 220.492188 L 81.503906 219.8125 L 82.53125 222.542969 L 81.503906 223.226562 Z M 81.847656 224.25 L 82.871094 223.910156 L 84.238281 227.324219 L 83.214844 227.664062 Z M 83.894531 229.03125 L 84.578125 228.347656 L 85.605469 231.078125 L 84.921875 231.761719 Z M 83.894531 229.03125 " fill-opacity="1" fill-rule="nonzero"/></g><g clip-path="url(#e9c1d8554f)"><path fill="#000000" d="M 239.949219 105.417969 C 217.414062 125.5625 179.167969 160.394531 157.3125 179.175781 C 151.507812 184.296875 147.070312 183.273438 135.800781 189.078125 C 135.460938 189.417969 135.117188 189.761719 135.460938 190.101562 C 136.824219 200.003906 150.484375 197.273438 160.046875 194.542969 C 160.386719 194.542969 160.726562 194.199219 160.726562 193.859375 L 161.410156 181.90625 C 161.410156 180.882812 156.289062 186.347656 242.339844 108.832031 C 242.339844 108.832031 242.339844 108.832031 242.339844 108.488281 C 242.683594 106.78125 241.65625 105.417969 239.949219 105.417969 Z M 239.949219 105.417969 " fill-opacity="1" fill-rule="nonzero"/></g><path fill="#1a1a1a" d="M 161.851562 114.433594 L 160.769531 113.351562 " fill-opacity="1" fill-rule="nonzero"/><g clip-path="url(#7c52cc5486)"><path fill="#1a1a1a" d="M 198.285156 94.359375 C 191.597656 106.914062 183.363281 109.5625 176.3125 108.660156 C 176.199219 108.792969 176.082031 108.925781 175.960938 109.058594 C 175.433594 109.644531 174.882812 110.222656 174.320312 110.785156 C 174.230469 110.878906 174.132812 110.96875 174.042969 111.058594 L 173.933594 111.167969 C 171.820312 113.289062 170.625 115.65625 170.375 118.210938 C 192.101562 119.40625 200.5625 95.304688 200.5625 95.304688 L 198.285156 94.359375 " fill-opacity="1" fill-rule="nonzero"/></g><path fill="#1a1a1a" d="M 160.65625 101.128906 L 155.128906 107.824219 L 154.941406 108.054688 C 154.78125 108.242188 154.796875 108.519531 154.96875 108.691406 L 156.554688 110.277344 C 156.222656 111.761719 156.382812 113.296875 157 114.671875 C 155.949219 114.195312 154.878906 113.667969 153.789062 113.082031 L 152.5 114.371094 C 152.191406 114.679688 151.691406 114.664062 151.40625 114.339844 C 150.722656 113.5625 149.304688 112.316406 147.050781 112.054688 C 147.160156 111.226562 147.585938 109.175781 149.175781 107.058594 C 149.828125 106.191406 150.117188 105.164062 150.007812 104.089844 C 150.003906 104.046875 150 104.007812 149.992188 103.960938 L 160.65625 101.128906 " fill-opacity="1" fill-rule="nonzero"/><g clip-path="url(#a0e887f731)"><path fill="#1a1a1a" d="M 181.671875 96.671875 C 180.449219 100.394531 178.226562 104.082031 175.0625 107.644531 C 173.152344 107.269531 171.1875 106.613281 169.207031 105.6875 C 170.074219 105.101562 171.15625 104.277344 172.226562 103.207031 C 175.605469 99.832031 178.855469 94.089844 175.410156 85.773438 L 180.257812 79.894531 C 181.007812 81.207031 182.277344 83.898438 182.675781 87.503906 C 183.015625 90.535156 182.675781 93.621094 181.671875 96.671875 Z M 165.652344 109.726562 C 165.683594 109.761719 165.71875 109.800781 165.75 109.835938 C 165.78125 109.875 165.8125 109.914062 165.839844 109.953125 C 165.917969 110.058594 165.988281 110.167969 166.054688 110.277344 C 166.0625 110.292969 166.070312 110.300781 166.078125 110.316406 C 166.113281 110.382812 166.144531 110.445312 166.175781 110.507812 C 166.21875 110.605469 166.257812 110.703125 166.289062 110.804688 C 166.296875 110.820312 166.300781 110.835938 166.308594 110.855469 C 166.335938 110.953125 166.367188 111.054688 166.386719 111.15625 C 166.390625 111.167969 166.390625 111.179688 166.390625 111.191406 C 166.410156 111.292969 166.429688 111.398438 166.441406 111.5 L 166.441406 111.511719 C 166.449219 111.621094 166.453125 111.726562 166.453125 111.828125 L 166.453125 111.875 C 166.445312 111.980469 166.445312 112.089844 166.429688 112.195312 C 166.429688 112.195312 166.429688 112.203125 166.425781 112.207031 C 166.414062 112.308594 166.394531 112.410156 166.371094 112.511719 C 166.367188 112.523438 166.367188 112.539062 166.363281 112.550781 C 166.335938 112.652344 166.308594 112.75 166.273438 112.847656 C 166.265625 112.863281 166.261719 112.882812 166.253906 112.894531 C 166.21875 112.996094 166.175781 113.09375 166.128906 113.1875 C 166.109375 113.226562 166.089844 113.265625 166.066406 113.300781 C 166.046875 113.347656 166.019531 113.390625 165.988281 113.433594 C 165.964844 113.476562 165.933594 113.519531 165.90625 113.5625 C 165.890625 113.582031 165.871094 113.609375 165.855469 113.628906 C 165.8125 113.6875 165.765625 113.746094 165.714844 113.800781 C 165.695312 113.828125 165.671875 113.851562 165.652344 113.875 L 165.628906 113.898438 C 165.609375 113.917969 165.589844 113.941406 165.570312 113.960938 C 164.5625 114.96875 163.023438 115.125 161.851562 114.433594 C 161.632812 114.308594 161.429688 114.148438 161.242188 113.960938 C 161.058594 113.773438 160.898438 113.570312 160.769531 113.351562 C 160.078125 112.179688 160.234375 110.644531 161.242188 109.636719 C 161.285156 109.597656 161.328125 109.558594 161.371094 109.515625 C 161.433594 109.464844 161.492188 109.410156 161.558594 109.367188 C 161.585938 109.34375 161.613281 109.320312 161.644531 109.300781 C 161.683594 109.277344 161.71875 109.25 161.757812 109.226562 C 161.785156 109.207031 161.8125 109.191406 161.839844 109.171875 C 161.878906 109.152344 161.917969 109.128906 161.953125 109.109375 C 161.972656 109.097656 161.996094 109.085938 162.019531 109.078125 C 162.101562 109.03125 162.1875 108.992188 162.273438 108.960938 C 162.316406 108.945312 162.355469 108.929688 162.394531 108.917969 C 162.722656 108.800781 163.0625 108.742188 163.40625 108.746094 C 163.449219 108.746094 163.488281 108.746094 163.527344 108.746094 C 163.570312 108.746094 163.609375 108.75 163.648438 108.757812 C 163.683594 108.757812 163.714844 108.761719 163.746094 108.765625 C 163.996094 108.789062 164.238281 108.847656 164.472656 108.933594 C 164.527344 108.953125 164.582031 108.976562 164.632812 109 C 164.671875 109.015625 164.707031 109.03125 164.742188 109.050781 C 164.777344 109.066406 164.8125 109.082031 164.847656 109.105469 C 164.929688 109.148438 165.007812 109.191406 165.082031 109.242188 C 165.125 109.269531 165.164062 109.300781 165.203125 109.328125 C 165.285156 109.386719 165.363281 109.445312 165.433594 109.511719 C 165.460938 109.535156 165.480469 109.554688 165.503906 109.578125 C 165.527344 109.59375 165.546875 109.617188 165.570312 109.636719 C 165.597656 109.667969 165.625 109.695312 165.652344 109.726562 Z M 174.480469 85.636719 L 161.332031 101.578125 L 156.027344 108.003906 C 155.871094 108.191406 155.886719 108.46875 156.058594 108.640625 L 157.449219 110.035156 C 156.9375 111.757812 157.195312 113.660156 158.210938 115.207031 C 158.441406 115.554688 158.707031 115.882812 159.015625 116.1875 C 159.675781 116.851562 160.453125 117.332031 161.28125 117.632812 L 159.40625 120.289062 C 159 120.867188 159.09375 121.664062 159.640625 122.113281 C 160.53125 122.847656 161.082031 123.761719 161.421875 124.675781 C 161.480469 124.667969 161.539062 124.660156 161.597656 124.65625 C 161.632812 124.652344 161.671875 124.648438 161.707031 124.648438 C 161.777344 124.648438 164.292969 124.558594 166.984375 122.542969 C 167.796875 121.933594 168.757812 121.648438 169.765625 121.71875 C 169.535156 120.523438 169.460938 119.332031 169.574219 118.15625 C 169.820312 115.527344 170.992188 112.976562 173.363281 110.597656 L 173.476562 110.488281 C 173.566406 110.394531 173.660156 110.304688 173.753906 110.214844 C 174.320312 109.648438 174.855469 109.082031 175.363281 108.519531 C 190.328125 92.007812 180.351562 78.523438 180.351562 78.523438 L 174.480469 85.636719 " fill-opacity="1" fill-rule="nonzero"/></g><g clip-path="url(#a0f13d85b2)"><path fill="#1a1a1a" d="M 172.6875 127.035156 C 172.625 127.109375 172.5625 127.175781 172.496094 127.238281 C 172.347656 127.386719 172.199219 127.511719 172.046875 127.621094 C 170.9375 128.40625 169.777344 128.210938 168.863281 129.121094 C 168.261719 129.722656 167.769531 130.808594 167.46875 132.988281 C 166.699219 138.535156 164.675781 150.640625 155.320312 166.222656 C 153.578125 169.125 152.648438 172.441406 152.554688 175.820312 C 152.507812 177.640625 152.199219 179.503906 151.261719 180.4375 C 150.636719 181.0625 149.730469 181.273438 148.433594 180.78125 C 142.636719 178.566406 143.742188 171.351562 146.695312 168.398438 C 149.640625 165.457031 151.023438 160.097656 151.933594 156.183594 C 153.320312 150.226562 153.730469 143.972656 155.492188 138.140625 C 156.023438 136.386719 157.855469 128.628906 160.292969 126.191406 C 160.734375 125.75 161.191406 125.484375 161.664062 125.457031 C 161.683594 125.457031 161.703125 125.453125 161.722656 125.453125 C 161.722656 125.453125 164.511719 125.398438 167.46875 123.1875 C 168.25 122.601562 169.121094 122.433594 169.945312 122.546875 C 172.238281 122.855469 174.160156 125.328125 172.6875 127.035156 " fill-opacity="1" fill-rule="nonzero"/></g><path fill="#1a1a1a" d="M 149.207031 104.171875 C 149.289062 104.976562 149.101562 105.816406 148.535156 106.574219 C 146.8125 108.871094 146.363281 111.070312 146.246094 112.003906 C 146.210938 112.300781 146.207031 112.46875 146.207031 112.46875 C 146.199219 112.878906 145.957031 113.285156 145.566406 113.679688 C 143.867188 115.375 139.300781 116.835938 138.109375 117.269531 C 134.253906 118.6875 130.195312 119.832031 126.148438 120.558594 C 118.152344 121.992188 108.308594 121.6875 102.109375 127.882812 C 99.082031 130.90625 91.671875 132.042969 89.398438 126.097656 C 88.890625 124.765625 89.105469 123.835938 89.75 123.195312 C 90.761719 122.183594 92.828125 121.882812 94.785156 121.859375 C 98.011719 121.820312 101.175781 120.949219 103.9375 119.277344 C 120.132812 109.472656 132.722656 107.367188 138.46875 106.574219 C 140.703125 106.265625 141.820312 105.761719 142.441406 105.140625 C 143.503906 104.078125 143.097656 102.691406 144.371094 101.417969 C 144.4375 101.351562 144.507812 101.285156 144.582031 101.222656 C 146.367188 99.679688 148.972656 101.757812 149.207031 104.171875 " fill-opacity="1" fill-rule="nonzero"/></svg>