<svg xmlns="http://www.w3.org/2000/svg" xmlns:xlink="http://www.w3.org/1999/xlink" width="500" zoomAndPan="magnify" viewBox="0 0 375 374.999991" height="500" preserveAspectRatio="xMidYMid meet" version="1.0"><defs><clipPath id="968fa3b486"><path d="M 188.527344 159.675781 L 196.917969 159.675781 L 196.917969 172.097656 L 188.527344 172.097656 Z M 188.527344 159.675781 " clip-rule="nonzero"/></clipPath><clipPath id="3a8a81faee"><path d="M 167 144.347656 L 173 144.347656 L 173 151 L 167 151 Z M 167 144.347656 " clip-rule="nonzero"/></clipPath><clipPath id="7736413148"><path d="M 163.929688 151 L 172 151 L 172 153 L 163.929688 153 Z M 163.929688 151 " clip-rule="nonzero"/></clipPath><clipPath id="bb01eb75ce"><path d="M 153 119 L 229.929688 119 L 229.929688 267 L 153 267 Z M 153 119 " clip-rule="nonzero"/></clipPath></defs><path fill="#000000" d="M 188.144531 158.148438 C 187.855469 157.808594 187.765625 157.308594 187.871094 156.664062 L 188.472656 156.84375 C 188.992188 157.863281 188.9375 158.226562 188.796875 158.351562 C 188.769531 158.375 188.769531 158.414062 188.792969 158.4375 C 188.800781 158.445312 188.808594 158.453125 188.820312 158.457031 C 188.839844 158.460938 188.863281 158.457031 188.878906 158.441406 C 189.121094 158.226562 189.042969 157.714844 188.636719 156.890625 L 188.761719 156.925781 C 188.96875 156.988281 189.140625 157.128906 189.242188 157.316406 L 190.03125 158.761719 C 189.121094 158.753906 188.484375 158.550781 188.144531 158.148438 Z M 190.417969 156.597656 C 190.164062 156.132812 189.734375 155.785156 189.226562 155.636719 L 186.605469 154.863281 C 186.425781 154.8125 186.238281 154.835938 186.085938 154.921875 C 186.042969 154.941406 186 154.972656 185.964844 155.003906 L 180.011719 153.25 C 179.984375 153.164062 179.917969 153.09375 179.824219 153.066406 L 179.125 152.859375 C 179.03125 152.832031 178.9375 152.855469 178.867188 152.910156 L 173.632812 151.371094 L 173.703125 151.132812 L 172.320312 150.984375 L 172.109375 151.691406 L 173.355469 152.316406 L 173.425781 152.078125 L 178.65625 153.621094 C 178.683594 153.707031 178.753906 153.777344 178.84375 153.804688 L 179.542969 154.011719 C 179.636719 154.039062 179.734375 154.015625 179.804688 153.960938 L 185.757812 155.714844 C 185.824219 155.929688 185.996094 156.113281 186.230469 156.179688 L 187.65625 156.601562 C 187.65625 156.605469 187.65625 156.609375 187.652344 156.613281 C 187.53125 157.332031 187.640625 157.898438 187.976562 158.292969 C 188.175781 158.53125 188.464844 158.707031 188.828125 158.824219 C 188.84375 158.828125 188.855469 158.832031 188.871094 158.835938 C 189.210938 158.933594 189.617188 158.984375 190.09375 158.984375 C 190.109375 158.984375 190.128906 158.976562 190.144531 158.96875 L 190.699219 159.988281 C 190.777344 160.132812 190.960938 160.1875 191.105469 160.109375 L 191.78125 159.742188 C 191.929688 159.660156 191.980469 159.480469 191.902344 159.332031 L 190.417969 156.597656 " fill-opacity="1" fill-rule="nonzero"/><g clip-path="url(#968fa3b486)"><path fill="#000000" d="M 196.761719 172.097656 C 195.800781 171.597656 193.210938 170.835938 192.027344 170.554688 C 191.371094 170.394531 190.828125 170.199219 190.367188 169.957031 C 189.792969 169.652344 189.34375 169.269531 189.035156 168.8125 C 188.695312 168.304688 188.527344 167.667969 188.558594 167.019531 C 188.59375 166.371094 188.832031 165.753906 189.222656 165.285156 C 189.585938 164.859375 190.050781 164.550781 190.503906 164.25 C 190.632812 164.167969 190.769531 164.078125 190.898438 163.988281 C 191.601562 163.496094 191.988281 163.027344 192.121094 162.515625 C 192.25 162.007812 192.109375 161.5 191.96875 161.164062 C 191.78125 160.71875 191.492188 160.3125 191.214844 159.917969 L 191.496094 159.722656 C 191.78125 160.132812 192.082031 160.554688 192.28125 161.03125 C 192.445312 161.417969 192.605469 162 192.453125 162.597656 C 192.25 163.386719 191.578125 163.929688 191.089844 164.269531 C 190.960938 164.359375 190.824219 164.449219 190.691406 164.535156 C 190.238281 164.835938 189.8125 165.117188 189.484375 165.507812 C 188.769531 166.359375 188.699219 167.699219 189.320312 168.621094 C 189.820312 169.367188 190.734375 169.890625 192.109375 170.222656 C 193.234375 170.492188 195.886719 171.257812 196.917969 171.796875 L 196.761719 172.097656 " fill-opacity="1" fill-rule="nonzero"/></g><path fill="#000000" d="M 171.417969 151.03125 L 164.375 149.195312 C 164.292969 149.175781 164.246094 149.089844 164.265625 149.007812 C 164.289062 148.925781 164.371094 148.878906 164.453125 148.898438 C 164.457031 148.898438 164.457031 148.898438 164.460938 148.902344 L 171.417969 151.03125 " fill-opacity="1" fill-rule="nonzero"/><path fill="#000000" d="M 171.648438 150.734375 L 165.660156 146.601562 C 165.589844 146.554688 165.574219 146.460938 165.621094 146.390625 C 165.667969 146.320312 165.765625 146.300781 165.835938 146.351562 C 165.835938 146.351562 165.839844 146.351562 165.839844 146.355469 L 171.648438 150.734375 " fill-opacity="1" fill-rule="nonzero"/><g clip-path="url(#3a8a81faee)"><path fill="#000000" d="M 172.027344 150.542969 L 167.8125 144.613281 C 167.761719 144.542969 167.78125 144.449219 167.847656 144.398438 C 167.917969 144.351562 168.015625 144.367188 168.0625 144.4375 C 168.0625 144.4375 168.066406 144.4375 168.066406 144.441406 L 172.027344 150.542969 " fill-opacity="1" fill-rule="nonzero"/></g><g clip-path="url(#7736413148)"><path fill="#000000" d="M 171.363281 151.375 L 164.113281 152.058594 C 164.03125 152.066406 163.957031 152.003906 163.949219 151.921875 C 163.941406 151.835938 164 151.761719 164.085938 151.753906 C 164.089844 151.753906 164.089844 151.753906 164.09375 151.753906 L 171.363281 151.375 " fill-opacity="1" fill-rule="nonzero"/></g><path fill="#000000" d="M 171.488281 151.707031 L 164.90625 154.828125 C 164.832031 154.863281 164.738281 154.832031 164.703125 154.753906 C 164.667969 154.679688 164.699219 154.585938 164.777344 154.550781 C 164.777344 154.550781 164.78125 154.546875 164.78125 154.546875 L 171.488281 151.707031 " fill-opacity="1" fill-rule="nonzero"/><path fill="#000000" d="M 114.683594 203.699219 C 114.855469 203.058594 115.464844 202.652344 116.027344 202.304688 C 121.726562 198.78125 127.421875 195.261719 133.117188 191.742188 C 133.585938 191.453125 134.148438 191.152344 134.660156 191.351562 C 135.214844 191.570312 135.40625 192.300781 135.230469 192.867188 C 135.050781 193.4375 134.605469 193.871094 134.175781 194.28125 C 129.824219 198.433594 125.359375 202.464844 120.789062 206.371094 C 120.585938 205.46875 121.582031 204.675781 121.554688 203.75 C 121.527344 202.871094 120.554688 202.277344 119.675781 202.304688 C 118.796875 202.328125 117.996094 202.785156 117.210938 203.179688 C 116.425781 203.570312 115.535156 203.914062 114.683594 203.699219 Z M 114.683594 203.699219 " fill-opacity="1" fill-rule="nonzero"/><path fill="#000000" d="M 153.007812 176.425781 C 153.148438 176.441406 153.265625 176.539062 153.375 176.632812 C 154.992188 178.019531 156.609375 179.40625 158.230469 180.792969 C 154.1875 183.914062 150.144531 187.039062 146.101562 190.164062 C 144.925781 191.070312 143.734375 191.988281 142.367188 192.570312 C 141.378906 192.992188 140.246094 193.222656 139.226562 192.882812 C 138.203125 192.542969 137.371094 191.492188 137.566406 190.433594 C 137.921875 188.496094 139.554688 187.097656 141.085938 185.859375 C 144.890625 182.789062 148.699219 179.71875 152.503906 176.648438 C 152.652344 176.53125 152.820312 176.40625 153.007812 176.425781 Z M 153.007812 176.425781 " fill-opacity="1" fill-rule="nonzero"/><path fill="#000000" d="M 116.4375 225.15625 C 117.882812 225.023438 119.007812 226.605469 118.964844 228.050781 C 118.921875 229.5 118.082031 230.789062 117.273438 231.988281 C 116.792969 232.703125 116.3125 233.414062 115.828125 234.128906 C 114.828125 235.617188 113.402344 237.292969 111.636719 236.972656 C 110.117188 236.691406 109.28125 235.03125 108.988281 233.511719 C 108.910156 233.117188 108.851562 232.707031 108.632812 232.371094 C 108.417969 232.03125 107.992188 231.789062 107.613281 231.921875 C 106.601562 232.277344 105.429688 231.8125 104.722656 231.003906 C 104.015625 230.199219 103.707031 229.113281 103.582031 228.046875 C 103.550781 227.761719 103.539062 227.4375 103.730469 227.222656 C 103.882812 227.050781 104.121094 226.996094 104.339844 226.933594 C 107.980469 225.964844 110.261719 222.289062 113.683594 220.714844 C 114.089844 220.527344 114.738281 220.484375 114.828125 220.921875 C 114.007812 221.527344 113.664062 222.699219 114.027344 223.648438 C 114.390625 224.601562 115.425781 225.25 116.4375 225.15625 Z M 116.4375 225.15625 " fill-opacity="1" fill-rule="nonzero"/><path fill="#000000" d="M 103.378906 210.328125 C 103.042969 210.742188 103.246094 211.402344 103.664062 211.734375 C 104.082031 212.066406 104.636719 212.15625 105.160156 212.234375 C 105.6875 212.3125 106.242188 212.40625 106.652344 212.746094 C 107.25 213.234375 107.375 214.09375 107.332031 214.863281 C 107.117188 218.460938 104.1875 221.3125 103.21875 224.78125 C 102.972656 225.65625 101.738281 225.953125 100.976562 225.457031 C 100.21875 224.957031 99.9375 223.941406 100.0625 223.042969 C 100.1875 222.144531 100.640625 221.328125 101.085938 220.539062 C 101.636719 219.566406 102.183594 218.59375 102.730469 217.621094 C 102.015625 217.421875 101.257812 217.535156 100.511719 217.542969 C 99.769531 217.550781 98.957031 217.414062 98.46875 216.855469 C 97.933594 216.238281 97.96875 215.28125 98.335938 214.550781 C 98.703125 213.824219 99.335938 213.273438 99.957031 212.742188 C 100.890625 211.941406 101.824219 211.136719 102.757812 210.335938 C 102.953125 210.167969 103.355469 210.070312 103.378906 210.328125 Z M 103.378906 210.328125 " fill-opacity="1" fill-rule="nonzero"/><path fill="#000000" d="M 128.878906 208.363281 C 128.800781 209.175781 128.941406 209.992188 128.984375 210.808594 C 129.0625 212.332031 128.800781 213.871094 128.21875 215.28125 C 127.503906 213.773438 125.476562 213.0625 123.976562 213.789062 C 123.085938 214.222656 122.417969 215.058594 121.488281 215.398438 C 120.558594 215.734375 119.179688 215.082031 119.445312 214.125 C 120.082031 211.804688 118.042969 209.164062 115.636719 209.195312 C 114.351562 209.210938 113.742188 207.386719 114.375 206.265625 C 115.011719 205.148438 116.316406 204.621094 117.523438 204.171875 C 118.15625 203.941406 118.785156 203.707031 119.417969 203.472656 C 119.910156 203.289062 120.386719 203.890625 120.339844 204.410156 C 120.296875 204.929688 119.949219 205.367188 119.703125 205.828125 C 119.457031 206.289062 119.320312 206.90625 119.660156 207.304688 C 120.1875 207.917969 121.179688 207.425781 121.804688 206.914062 C 126.761719 202.828125 131.527344 198.511719 136.074219 193.976562 C 136.429688 195.382812 135.597656 196.792969 134.804688 198.011719 C 133.421875 200.125 132.042969 202.238281 130.660156 204.351562 C 129.851562 205.589844 129.023438 206.890625 128.878906 208.363281 Z M 128.878906 208.363281 " fill-opacity="1" fill-rule="nonzero"/><path fill="#000000" d="M 115.746094 221.425781 C 116.332031 220.621094 115.421875 219.421875 114.429688 219.355469 C 113.433594 219.292969 112.542969 219.925781 111.75 220.523438 C 109.277344 222.394531 106.804688 224.261719 104.332031 226.128906 C 104.03125 224.820312 104.828125 223.542969 105.523438 222.390625 C 106.324219 221.0625 107.03125 219.679688 107.636719 218.25 C 108.226562 216.851562 108.726562 215.328125 108.4375 213.839844 C 108.152344 212.351562 106.8125 210.964844 105.304688 211.140625 C 104.722656 211.207031 104.328125 210.460938 104.496094 209.898438 C 104.667969 209.339844 105.175781 208.964844 105.65625 208.632812 C 107.867188 207.113281 110.140625 205.691406 112.46875 204.367188 C 112.75 204.207031 113.070312 204.046875 113.375 204.140625 C 114.085938 204.367188 113.785156 205.425781 113.414062 206.074219 C 112.953125 206.875 112.597656 207.859375 112.964844 208.707031 C 113.792969 210.621094 117.183594 209.953125 118.152344 211.796875 C 118.828125 213.078125 117.878906 214.875 118.777344 216.015625 C 119.691406 217.171875 121.535156 216.554688 122.804688 215.804688 C 124.074219 215.054688 125.804688 214.289062 126.875 215.304688 C 127.691406 216.082031 127.527344 217.414062 127.199219 218.492188 C 126.554688 220.640625 125.523438 222.671875 124.171875 224.464844 C 123.660156 225.144531 123.0625 225.820312 122.253906 226.085938 C 121.445312 226.347656 120.390625 226.035156 120.117188 225.230469 C 119.878906 224.535156 119.128906 224.15625 118.414062 223.96875 C 117.703125 223.785156 116.9375 223.710938 116.320312 223.308594 C 115.703125 222.910156 115.308594 222.019531 115.746094 221.425781 Z M 115.746094 221.425781 " fill-opacity="1" fill-rule="nonzero"/><g clip-path="url(#bb01eb75ce)"><path fill="#000000" d="M 222.800781 236.292969 C 212.191406 229.1875 206.023438 216.726562 204.207031 204.089844 C 202.75 193.964844 203.417969 182.574219 196.691406 174.867188 C 195.292969 174.042969 193.394531 175.121094 192.757812 176.617188 C 192.125 178.109375 192.371094 179.8125 192.601562 181.421875 C 194.496094 194.46875 194.714844 207.722656 196.8125 220.734375 C 198.691406 232.40625 202.082031 243.949219 201.875 255.769531 C 201.820312 258.898438 201.359375 262.34375 199.015625 264.417969 C 195.503906 267.53125 189.542969 265.617188 186.800781 261.800781 C 184.058594 257.988281 183.632812 253.039062 183.207031 248.363281 C 182.183594 237.050781 180.652344 225.785156 178.621094 214.609375 C 177.703125 228.3125 175.03125 241.828125 172.335938 255.289062 C 171.679688 258.578125 170.90625 262.078125 168.484375 264.398438 C 166.066406 266.71875 161.421875 266.96875 159.785156 264.046875 C 159.070312 262.773438 159.082031 261.234375 159.109375 259.773438 C 159.675781 230.515625 160.257812 201.105469 165.527344 172.316406 C 165.628906 171.746094 165.730469 171.125 165.464844 170.609375 C 165.195312 170.09375 164.390625 169.839844 164.027344 170.292969 C 163.910156 170.441406 163.863281 170.628906 163.816406 170.8125 C 163.105469 173.6875 162.394531 176.5625 161.679688 179.441406 C 157.964844 180.179688 154.441406 176.8125 153.589844 173.125 C 152.738281 169.433594 153.8125 165.601562 154.882812 161.96875 C 156.777344 155.53125 159.308594 148.332031 165.445312 145.617188 C 166.785156 145.023438 168.300781 144.644531 169.296875 143.570312 C 170.296875 142.496094 170.316406 140.371094 168.9375 139.875 C 163.449219 137.890625 160.417969 130.894531 162.722656 125.535156 C 165.03125 120.175781 172.199219 117.566406 177.410156 120.191406 C 182.621094 122.816406 184.792969 130.125 181.863281 135.171875 C 180.875 136.871094 181.371094 139.128906 182.578125 140.679688 C 183.785156 142.230469 185.570312 143.214844 187.347656 144.058594 C 191.652344 146.105469 196.242188 147.613281 200.242188 150.207031 C 204.242188 152.796875 207.710938 156.785156 208.15625 161.53125 C 208.609375 166.375 205.476562 171.328125 200.910156 172.996094 C 204.398438 178.6875 206.648438 185.132812 207.464844 191.757812 C 208.207031 197.796875 207.785156 204.007812 209.378906 209.878906 C 212.121094 219.972656 220.359375 227.539062 228.640625 233.929688 C 229.933594 234.925781 228.9375 237.25 227.355469 237.648438 C 225.769531 238.046875 224.15625 237.199219 222.800781 236.292969 Z M 222.800781 236.292969 " fill-opacity="1" fill-rule="nonzero"/></g></svg>